<?xml version="1.0" encoding="UTF-8" standalone="no"?>
<!DOCTYPE svg PUBLIC "-//W3C//DTD SVG 1.1//EN"
 "http://www.w3.org/Graphics/SVG/1.1/DTD/svg11.dtd">
<!-- Generated by graphviz version 2.47.0 (20210316.0004)
 -->
<!-- Title: dependencies Pages: 1 -->
<svg width="1151pt" height="211pt"
 viewBox="0.00 0.00 1151.00 211.00" xmlns="http://www.w3.org/2000/svg" xmlns:xlink="http://www.w3.org/1999/xlink">
<g id="graph0" class="graph" transform="scale(1 1) rotate(0) translate(4 207)">
<title>dependencies</title>
<polygon fill="white" stroke="transparent" points="-4,4 -4,-207 1147,-207 1147,4 -4,4"/>
<text text-anchor="start" x="550.51" y="-42.4" font-family="Times-12" font-weight="bold" font-size="14.00">Legend</text>
<polygon fill="#ffffb3" stroke="transparent" points="337.5,-10 337.5,-30 357.5,-30 357.5,-10 337.5,-10"/>
<text text-anchor="start" x="361.13" y="-15.4" font-family="Times-12" font-size="14.00"> &#160;Declarations</text>
<polygon fill="#8dd3c7" stroke="transparent" points="450.5,-10 450.5,-30 470.5,-30 470.5,-10 450.5,-10"/>
<text text-anchor="start" x="474.23" y="-15.4" font-family="Times-12" font-size="14.00"> &#160;Module</text>
<polygon fill="#80b1d3" stroke="transparent" points="536.5,-10 536.5,-30 556.5,-30 556.5,-10 536.5,-10"/>
<text text-anchor="start" x="560.28" y="-15.4" font-family="Times-12" font-size="14.00"> &#160;Bootstrap</text>
<polygon fill="#fdb462" stroke="transparent" points="633.5,-10 633.5,-30 653.5,-30 653.5,-10 633.5,-10"/>
<text text-anchor="start" x="657.17" y="-15.4" font-family="Times-12" font-size="14.00"> &#160;Providers</text>
<polygon fill="#fb8072" stroke="transparent" points="729.5,-10 729.5,-30 749.5,-30 749.5,-10 729.5,-10"/>
<text text-anchor="start" x="753.23" y="-15.4" font-family="Times-12" font-size="14.00"> &#160;Exports</text>
<g id="clust1" class="cluster">
<title>cluster_AppModule</title>
<polygon fill="none" stroke="black" stroke-dasharray="1,5" points="8,-70 8,-195 1135,-195 1135,-70 8,-70"/>
</g>
<g id="clust6" class="cluster">
<title>cluster_AppModule_providers</title>
<polygon fill="none" stroke="black" points="997,-78 997,-130 1127,-130 1127,-78 997,-78"/>
</g>
<g id="clust3" class="cluster">
<title>cluster_AppModule_imports</title>
<polygon fill="none" stroke="black" points="16,-78 16,-130 989,-130 989,-78 16,-78"/>
</g>
<!-- AuthModule -->
<g id="node1" class="node">
<title>AuthModule</title>
<polygon fill="#8dd3c7" stroke="black" points="980.55,-122 977.55,-126 956.55,-126 953.55,-122 893.45,-122 893.45,-86 980.55,-86 980.55,-122"/>
<text text-anchor="middle" x="937" y="-99.8" font-family="Times,serif" font-size="14.00">AuthModule</text>
</g>
<!-- AppModule -->
<g id="node9" class="node">
<title>AppModule</title>
<polygon fill="#8dd3c7" stroke="black" points="600.66,-187 597.66,-191 576.66,-191 573.66,-187 517.34,-187 517.34,-151 600.66,-151 600.66,-187"/>
<text text-anchor="middle" x="559" y="-164.8" font-family="Times,serif" font-size="14.00">AppModule</text>
</g>
<!-- AuthModule&#45;&gt;AppModule -->
<g id="edge1" class="edge">
<title>AuthModule&#45;&gt;AppModule</title>
<path fill="none" stroke="black" d="M937,-122.13C937,-142.57 937,-173 937,-173 937,-173 610.9,-173 610.9,-173"/>
<polygon fill="black" stroke="black" points="610.9,-169.5 600.9,-173 610.9,-176.5 610.9,-169.5"/>
</g>
<!-- BlogCategoryModule -->
<g id="node2" class="node">
<title>BlogCategoryModule</title>
<polygon fill="#8dd3c7" stroke="black" points="875.09,-122 872.09,-126 851.09,-126 848.09,-122 736.91,-122 736.91,-86 875.09,-86 875.09,-122"/>
<text text-anchor="middle" x="806" y="-99.8" font-family="Times,serif" font-size="14.00">BlogCategoryModule</text>
</g>
<!-- BlogCategoryModule&#45;&gt;AppModule -->
<g id="edge2" class="edge">
<title>BlogCategoryModule&#45;&gt;AppModule</title>
<path fill="none" stroke="black" d="M806,-122.27C806,-140.56 806,-166 806,-166 806,-166 610.9,-166 610.9,-166"/>
<polygon fill="black" stroke="black" points="610.9,-162.5 600.9,-166 610.9,-169.5 610.9,-162.5"/>
</g>
<!-- BlogModule -->
<g id="node3" class="node">
<title>BlogModule</title>
<polygon fill="#8dd3c7" stroke="black" points="719.28,-122 716.28,-126 695.28,-126 692.28,-122 632.72,-122 632.72,-86 719.28,-86 719.28,-122"/>
<text text-anchor="middle" x="676" y="-99.8" font-family="Times,serif" font-size="14.00">BlogModule</text>
</g>
<!-- BlogModule&#45;&gt;AppModule -->
<g id="edge3" class="edge">
<title>BlogModule&#45;&gt;AppModule</title>
<path fill="none" stroke="black" d="M676,-122.01C676,-138.05 676,-159 676,-159 676,-159 610.91,-159 610.91,-159"/>
<polygon fill="black" stroke="black" points="610.91,-155.5 600.91,-159 610.91,-162.5 610.91,-155.5"/>
</g>
<!-- CategoryModule -->
<g id="node4" class="node">
<title>CategoryModule</title>
<polygon fill="#8dd3c7" stroke="black" points="614.37,-122 611.37,-126 590.37,-126 587.37,-122 503.63,-122 503.63,-86 614.37,-86 614.37,-122"/>
<text text-anchor="middle" x="559" y="-99.8" font-family="Times,serif" font-size="14.00">CategoryModule</text>
</g>
<!-- CategoryModule&#45;&gt;AppModule -->
<g id="edge4" class="edge">
<title>CategoryModule&#45;&gt;AppModule</title>
<path fill="none" stroke="black" d="M559,-122.11C559,-122.11 559,-140.99 559,-140.99"/>
<polygon fill="black" stroke="black" points="555.5,-140.99 559,-150.99 562.5,-140.99 555.5,-140.99"/>
</g>
<!-- FaqCategoryModule -->
<g id="node5" class="node">
<title>FaqCategoryModule</title>
<polygon fill="#8dd3c7" stroke="black" points="485.86,-122 482.86,-126 461.86,-126 458.86,-122 354.14,-122 354.14,-86 485.86,-86 485.86,-122"/>
<text text-anchor="middle" x="420" y="-99.8" font-family="Times,serif" font-size="14.00">FaqCategoryModule</text>
</g>
<!-- FaqCategoryModule&#45;&gt;AppModule -->
<g id="edge5" class="edge">
<title>FaqCategoryModule&#45;&gt;AppModule</title>
<path fill="none" stroke="black" d="M420,-122.01C420,-138.05 420,-159 420,-159 420,-159 507.3,-159 507.3,-159"/>
<polygon fill="black" stroke="black" points="507.3,-162.5 517.3,-159 507.3,-155.5 507.3,-162.5"/>
</g>
<!-- FaqModule -->
<g id="node6" class="node">
<title>FaqModule</title>
<polygon fill="#8dd3c7" stroke="black" points="336.05,-122 333.05,-126 312.05,-126 309.05,-122 255.95,-122 255.95,-86 336.05,-86 336.05,-122"/>
<text text-anchor="middle" x="296" y="-99.8" font-family="Times,serif" font-size="14.00">FaqModule</text>
</g>
<!-- FaqModule&#45;&gt;AppModule -->
<g id="edge6" class="edge">
<title>FaqModule&#45;&gt;AppModule</title>
<path fill="none" stroke="black" d="M296,-122.27C296,-140.56 296,-166 296,-166 296,-166 507.33,-166 507.33,-166"/>
<polygon fill="black" stroke="black" points="507.33,-169.5 517.33,-166 507.33,-162.5 507.33,-169.5"/>
</g>
<!-- QuestionModule -->
<g id="node7" class="node">
<title>QuestionModule</title>
<polygon fill="#8dd3c7" stroke="black" points="238.1,-122 235.1,-126 214.1,-126 211.1,-122 127.9,-122 127.9,-86 238.1,-86 238.1,-122"/>
<text text-anchor="middle" x="183" y="-99.8" font-family="Times,serif" font-size="14.00">QuestionModule</text>
</g>
<!-- QuestionModule&#45;&gt;AppModule -->
<g id="edge7" class="edge">
<title>QuestionModule&#45;&gt;AppModule</title>
<path fill="none" stroke="black" d="M183,-122.13C183,-142.57 183,-173 183,-173 183,-173 507.32,-173 507.32,-173"/>
<polygon fill="black" stroke="black" points="507.32,-176.5 517.32,-173 507.32,-169.5 507.32,-176.5"/>
</g>
<!-- UserModule -->
<g id="node8" class="node">
<title>UserModule</title>
<polygon fill="#8dd3c7" stroke="black" points="109.98,-122 106.98,-126 85.98,-126 82.98,-122 24.02,-122 24.02,-86 109.98,-86 109.98,-122"/>
<text text-anchor="middle" x="67" y="-99.8" font-family="Times,serif" font-size="14.00">UserModule</text>
</g>
<!-- UserModule&#45;&gt;AppModule -->
<g id="edge8" class="edge">
<title>UserModule&#45;&gt;AppModule</title>
<path fill="none" stroke="black" d="M67,-122.01C67,-144.49 67,-180 67,-180 67,-180 507.05,-180 507.05,-180"/>
<polygon fill="black" stroke="black" points="507.05,-183.5 517.05,-180 507.05,-176.5 507.05,-183.5"/>
</g>
<!-- AppService -->
<g id="node10" class="node">
<title>AppService</title>
<ellipse fill="#fdb462" stroke="black" cx="1062" cy="-104" rx="56.74" ry="18"/>
<text text-anchor="middle" x="1062" y="-99.8" font-family="Times,serif" font-size="14.00">AppService</text>
</g>
<!-- AppService&#45;&gt;AppModule -->
<g id="edge9" class="edge">
<title>AppService&#45;&gt;AppModule</title>
<path fill="none" stroke="black" d="M1062,-122.01C1062,-144.49 1062,-180 1062,-180 1062,-180 611.02,-180 611.02,-180"/>
<polygon fill="black" stroke="black" points="611.02,-176.5 601.02,-180 611.02,-183.5 611.02,-176.5"/>
</g>
</g>
</svg>
